<svg id="Layer_1" enable-background="new 0 0 512 512" height="20" fill='#000000' viewBox="0 0 512 512" width="20" xmlns="http://www.w3.org/2000/svg"><path d="m348.7558594 153.9643555c-.2919922 0-.6269531.015625-.9423828.0395508 4.5039062-74.3588868 19.2851562-131.3466797-91.8134766-131.3354493-110.5805664.0107422-96.2597656 56.9765625-91.7558594 131.3354492-.3149414-.0239258-.621582-.0395508-.9140625-.0395508-4.6630859 0-12.1621094 4.2041016-11.1152344 21.7041016 1.1669922 19.5097656 13.1132813 44.8022461 21.3032227 46.1035156 14.4213867 53.0043946 44.3896484 77.9067383 82.4819336 77.9067383 38 0 68.1113281-24.9023438 82.5322266-77.9067383 8.1904297-1.3012695 20.1865234-26.59375 21.3535156-46.1035156 1.046875-17.5-6.4658203-21.7041015-11.1298828-21.7041015z"/><path d="m335.2949219 289.8671875c-19.0771484 43.5136719-47.5195313 61.1337891-79.2958984 61.1337891-31.7753906 0-60.2172852-17.6201172-79.2939453-61.1337891-71.8598634 15.8935547-122.2050782 52.7275391-122.2050782 95.6347656 0 57.4375 90.2148438 104 201.5 104s201.5-46.5625 201.5-104c0-42.9072265-50.3457031-79.7412109-122.2050781-95.6347656z"/></svg>