<?xml version="1.0" encoding="UTF-8"?><svg id="a" xmlns="http://www.w3.org/2000/svg" viewBox="0 0 175.06 376.24"><defs><style>.b{fill:#5fbe00;}.c{fill:#fec297;}.d{fill:#6e6b64;}.e{fill:#f8cd90;}.f{fill:#f6f2f0;}.g{fill:#303642;}.h{fill:#f9b26a;}.i{fill:#eba77b;}.j{fill:#ebb893;}.k{fill:#c7c597;}.l{fill:#262e3d;}.m{fill:#313742;}.n{fill:#263238;}</style></defs><path class="b" d="M118.1,124.22c-3.74,4.18-7.66,8.2-10.07,13.4-2.02,4.37-3.18,8.87-3.18,13.72,0,14.57-.09,29.13-.15,43.7-.93,3.97-3.37,6.83-6.68,9.03-5.92,3.94-12.21,6.98-19.45,7.48-.21-.04-.42-.12-.61-.21-.67-.32-1.64-1.3-1.36,.6-6.04,1.47-11.95,.61-17.83-.94-3.87-2.96-5.17-7.36-6.6-11.71-.8-5.02-.45-10.14-1.29-15.16-.23-7.44,1.09-14.69,2.63-21.91,.35-1.63,.8-3.22,.05-4.84-.17-.61,.18-.88,.71-1.03-.83-.12-1.32,.67-2.06,.8-4.93-.63-9.12-2.48-11.62-7.09,1.12-3.33,2.24-6.65,4.05-9.7,2.04-3.45,4.47-6.47,7.96-8.62,5.96-3.68,11.36-8.22,17.6-11.49,3.13,5.08,11.76,5.97,16.24,1.68,.75-.71,1.43-1.59,1.3-2.58-.44-3.48,1.59-3.72,4.18-3.43,.64,.07,1.32,.1,1.96-.14,5.52,.15,9.39-3.32,13.51-6.21,1.56-.46,2.85,.22,3.99,1.1,4.42,3.42,6.99,7.8,6.73,13.57Z"/><path class="n" d="M78.19,210.93c10.86-1.92,20.65-5.62,26.51-15.89,.49,2.38,.51,4.8,.61,7.22,.86,19.9,1.64,39.81,2.74,59.7,.85,15.42,.55,30.85,.74,46.27,.05,4.04,1.18,8.08-.18,12.1-1.08,1.38-2.55,1.88-4.23,1.95-.3-.01-.61-.06-.9-.13-1.4-.47-2.81-.58-4.25-.17-.29,.09-.58,.15-.87,.19-1.47,.07-2.71-.35-3.46-1.72-1.47-4.88-1.47-9.98-2.01-14.98-1.84-17.17-3.57-34.35-5.88-51.46-1.06-7.85-1.93-15.72-2.82-23.59-.21-1.9-.49-3.63-2.91-3.57-2.45,.06-3.01,1.66-3.1,3.81-.81,18.15-2.22,36.27-2.79,54.44-.36,11.23-1.02,22.45-1.26,33.69-.04,1.72,.18,3.55-1.36,4.87-.82,1.06-1.91,1.36-3.18,1.15-1.76-.48-3.53-.42-5.31-.05-1.64,.05-2.98-.53-3.94-1.9-2.12-3.86-1.55-8.21-1.78-12.29-.7-12.51-1.99-24.97-2.45-37.5-.54-14.61-1.97-29.19-2.93-43.78-.18-2.74,.07-5.5,.12-8.26,.79-.14,1.26,.33,1.56,.93,.88,1.8,1.78,3.41,4.2,2.07,2.24-1.24,3.35-3.87,2.46-6.1-.61-1.53-1.72-2.8-2.39-4.3-.47-1.06-1.38-2.04-.77-3.36,5.01,.7,9.99,1.74,15.09,1.3,1.19-.1,2.44,.13,3.53-.56,.37-.45,.78-.4,1.21-.1Z"/><path class="c" d="M118.1,124.22c-.79-2.86-1.51-5.75-2.95-8.38-1.73-3.16-4.4-5.15-7.76-6.29,5.33-8.33,10.66-16.65,15.99-24.98,1.9-2.97,2.25-6.38,2.74-9.74,1.01-6.94,2.32-13.84,2.5-20.88,.05-.22,.1-.45,.26-.6,3.36-3.27,3.44-4.35-.02-7.76-1.95-1.92-3.05-4.5-5.91-5.84-1.84-.86-1-3.27,1.05-4.38,3.57-2.97,3.46-2.89,6.36,.79,1.03,1.31,2.64,2.21,4.1,3.11,2.37,1.45,3.72,3.69,3.92,6.22,1,12.95,1.53,25.93,.21,38.9-.31,3.06-2.06,5.57-3.38,8.2-5.39,10.7-10.74,21.44-17.09,31.63Z"/><path class="c" d="M58.35,210.28c1.25,2.29,2.26,4.76,3.8,6.84,2.11,2.87-.8,7.54-4.19,8.36-1.45,.35-2.49-.26-3.15-1.67-.44-.95-.33-2.23-1.51-2.78-2.83-3.92-5.6-7.89-8.51-11.75-2.13-2.83-3.77-5.96-5.77-8.86-2.78-4.04-3.68-8.38-3.18-13.18,.99-9.51,.86-19.12,2.57-28.57,.53-2.93,1.16-5.82,2.18-8.62,3.21,3.49,7.04,5.85,11.79,6.55,.41-.27,.81-.4,1.1,.16,.93,.53,2.51,.08,1.81,2.39-2.43,7.99-3.46,16.23-3.56,24.59-.69,5.43-1.07,10.83,1.19,16.03,1.27,3.78,3.12,7.26,5.43,10.5Z"/><path class="n" d="M68.86,110.14c-.73,.12-1.26-.3-1.81-.67-10.54-7.04-13.98-22.84-7.21-33.51,.84-1.32,.95-2.62,.99-4.06,.14-5.1,1.12-5.7,5.87-3.44,.13-1.11,.11-2.19,.39-3.18,.63-2.25,1.91-3.33,4.04-1.55,.86,.72,1.19,.66,1.65-.27,.63-1.26,1.17-2.99,2.89-2.71,1.76,.28,1.43,2.43,2.71,4.59,.59-1.06,.82-1.9,1.37-2.39,1.03-.93,2.15-2.56,3.49-2.11,1.59,.53-.52,2.37,.52,3.56,1.76-.77,3.52-1.63,5.36-2.29,.97-.35,2.23-1.01,3.07,.08,.71,.92-.17,1.85-.57,2.73-.09,.2-.19,.41-.33,.57-1.84,2.09-2.61,3.76,1.26,4.3,1.4,.19,2.99,1.04,2.69,2.78-.34,1.97-2.19,1.81-3.74,1.83-.83-.09-1.95-.93-2.08,.8,1.31,1.53,1.65,3.29,1.23,5.23-.78,1.8-1.99,1.24-3.21,.62-1.14,1.95-.1,4.08-.56,6.07-1.72,3.49-3.18,3.39-5.92-.43-.95,4.1-1.38,4.39-5.5,3.72-3.49-.56-5.25,1.2-4.35,4.56,.6,2.25,.08,3.69-2.29,4.15-2.37,.46-2.11,1.77-1.17,3.35,.73,1.23,1.74,2.27,2.29,3.61,.67,1.63,1.09,3.21-1.1,4.08Z"/><path class="c" d="M87.46,79.83c.87,1.31,1.9,1.71,3.21,.58,4.39,7.79,5.69,16.09,4.06,24.86-.53,2.83-1.83,5.18-4.25,6.81-.91,.61-1.94,1.08-2.41,2.18-5.76,3.36-12.57,2.81-16.47-1.33-.66-1.18-1.66-2.03-2.74-2.79,1.59-1.62,.89-3.2-.12-4.74-.78-1.19-1.72-2.28-2.4-3.52-1.13-2.09-1.03-3.67,1.96-3.56,2.78,.1,2.88-1.28,1.88-3.34-.77-1.58-1.18-3.71,.43-4.44,1.61-.72,3.54-2.32,5.72-.63,1.44,1.11,2.56,.49,3.37-1.14,.72-1.44,.26-3.02,.81-4.65,1.38,.81,1.14,2.36,1.83,3.38,1.42,2.1,2.49,2.01,3.86-.4,.59-1.88,.13-3.82,.3-5.72,.06-.64-.35-1.64,.95-1.55Z"/><path class="g" d="M69.57,324.21c1.15,.28,2.14-.3,3.19-.56,1.44,10.26,.89,11.37-8.34,15.89-3.45,1.69-6.92,3.37-10.75,4.11-2.92,.56-3.94-.41-3.18-3.33,.97-3.77,3.04-7.05,5.09-10.32,1.52-2.42,3.16-4.76,4.75-7.14,1.33,.44,2.65,.89,3.98,1.33,1.75-.38,3.51-.42,5.26,.03Z"/><path class="g" d="M94.9,320.44c1.28,.44,2.56,.89,3.84,1.33,.28,.06,.55,.12,.83,.19,1.25,.3,2.53,.18,3.79,.16,.26-.1,.51-.24,.74-.41,1.51-.46,3.01-.92,4.52-1.38,2.42,3.4,5.82,6,7.88,9.67,.73,1.29,1.92,2.69,.92,4.24-1.09,1.69-2.89,1.15-4.5,.88-5.81-.97-11.08-3.35-16.23-6.11-2.58-1.38-3.72-3.14-2.46-6.04,.35-.79,.45-1.69,.67-2.54Z"/><path class="i" d="M71.6,112.93c5.24,3.57,10.84,2.61,16.47,1.33,1.34,2.83,3.98,.59,5.81,1.5-.75,.13-1.5,.41-2.24,.36-2.14-.13-3.61,.01-2.87,2.94,.54,2.14-1.19,3.46-2.83,4.42-3.67,2.16-7.7,2.61-11.82,1.83-2.65-.51-4.41-2-3.94-5.07,.47-2.43,.94-4.87,1.41-7.3Z"/><path class="m" d="M123.99,35.38q-2,3.69,1.75,4.63c.4,.1,1.11,.31,1.1,.46-.1,3.76,3.78,4.84,5.15,7.7,1.25,2.62,1.17,3.99-1.59,4.95-.62,.22-1.19,.56-1.79,.84-1.34,.09-2.54-.18-3.33-1.4-1.27-1.42-.43-4.28-3.19-4.69-1.52-2.28-2.91-4.66-4.59-6.81-2-2.55-1.22-4.1,1.43-5.23,1.63-.69,3.2-2.26,5.06-.45Z"/><path class="j" d="M122.09,47.86c2.02-1.18,3.13-.63,3.23,1.73,.04,.99-.03,1.98-.05,2.97-3.53,.11-3.55-2.16-3.19-4.69Z"/><path class="e" d="M89.44,75.18c-.27-.3-.79-.86-.78-.88,.96-.95,1.91-.48,2.85,.08-.68,.31-1.63-.11-2.08,.8Z"/><path class="f" d="M52.93,199.78c-3.88-5.09-3.17-10.51-1.19-16.03,.4,5.34,.79,10.69,1.19,16.03Z"/><path class="l" d="M53.48,156.76l-1.1-.16c.75-.82,1.64-.7,2.65-.41-.37,.74-1.08,.33-1.55,.57Z"/><path class="l" d="M78.19,210.93c-.4,.03-.81,.06-1.21,.1-.51-.08-1.02-.15-2-.3,1.48-.52,2.41-.65,3.21,.2Z"/><path class="d" d="M98.75,322.28c-.01-.17-.02-.34,0-.51v-.3c1.54-.26,3.07-.33,4.59,.04,.26,.06,.51,.13,.77,.19-.03,.17-.05,.35-.05,.53-1.76,.61-3.53,.53-5.3,.05Z"/><path class="k" d="M69.57,324.21c-1.75,.34-3.51,.38-5.26-.03,1.76-.92,3.51-.95,5.26,.03Z"/><path class="k" d="M103.33,321.51c-1.53-.01-3.05-.03-4.58-.04,1.53-.77,3.06-.85,4.58,.04Z"/><path class="h" d="M87.46,79.83c-1.68,2.21,.41,5.06-1.26,7.27-.02-2.35-.11-4.71-.04-7.06,.05-1.8,.7-1.14,1.3-.21Z"/><path class="l" d="M98.75,322.28c1.77-.02,3.53-.03,5.3-.05-1.76,1.11-3.52,1.04-5.3,.05Z"/><path class="l" d="M126.33,51.66c-.53-1-.53-1.67-.14-2.39,.62,.63,.38,1.29,.14,2.39Z"/></svg>